inDegrees=yes
name=ik_S42_A02_T02
DataType=double
version=3
OpenSimVersion=4.3-2021-08-27-4bc7ad9
endheader
time	pelvis_tilt	pelvis_list	pelvis_rotation	pelvis_tx	pelvis_ty	pelvis_tz	hip_flexion_r	hip_adduction_r	hip_rotation_r	knee_angle_r	knee_angle_r_beta	ankle_angle_r	subtalar_angle_r	mtp_angle_r	hip_flexion_l	hip_adduction_l	hip_rotation_l	knee_angle_l	knee_angle_l_beta	ankle_angle_l	subtalar_angle_l	mtp_angle_l	lumbar_extension	lumbar_bending	lumbar_rotation	arm_flex_r	arm_add_r	arm_rot_r	elbow_flex_r	pro_sup_r	wrist_flex_r	wrist_dev_r	arm_flex_l	arm_add_l	arm_rot_l	elbow_flex_l	pro_sup_l	wrist_flex_l	wrist_dev_l
26.19999999999953	-3.142107630455178	7.287622315097416	-90.28850425237538	0	0.9399999999999999	0	9.430813387094467	0.5440400784473767	-8.955536172130136	10.29947158055856	0.1797596902963313	0	0	0	13.73782675580409	3.721260713561429	0.8321339707008802	12.43717378747546	0.2170696322341802	0	0	0	0	0	0	33.73455369210433	-33.73455369210433	4.55682281551006	78.99819704534208	85.4431774387844	0	0	33.73455369210433	-33.73455369210433	4.55682281551006	78.99819704534208	85.44317743870197	0	0
26.21999999999953	-3.144157792811073	7.290883722798984	-90.29503275803545	0	0.9399999999999999	0	10.34314871340064	0.2537303948347536	-9.463607520880531	12.9129659571479	0.2253737721501718	0	0	0	14.02876737193334	3.51481998040292	0.1340130029574289	12.69814010097314	0.2216243536415066	0	0	0	0	0	0	33.73867928899951	-33.73867928899951	4.557145179689111	79.00257960200101	85.44285507462148	0	0	33.73867928899951	-33.73867928899951	4.557145179689111	79.00257960200101	85.4428550745391	0	0
26.23999999999953	-2.786901683564142	7.283750365516106	-90.29122074953837	0	0.9399999999999999	0	11.09652512266285	-0.7813828751795868	-10.01058993945205	15.9748838124201	0.278814320150275	0	0	0	14.36294153586405	3.67057677538085	-0.387576154713968	12.89565792955469	0.2250716900816443	0	0	0	0	0	0	33.74313958359012	-33.74313958359012	4.557490676195495	79.00727614093584	85.44250957813246	0	0	33.74313958359012	-33.74313958359012	4.557490676195495	79.00727614093584	85.44250957805014	0	0
26.25999999999953	-2.676611378130548	7.187076334246776	-90.06189306366635	0	0.9399999999999999	0	11.72560817372032	-2.232425375566124	-11.55675056837415	23.04232158390158	0.4021643789424375	0	0	0	14.54597396878325	3.800913626059578	-0.09777608971854923	12.92498419784918	0.2255835300207064	0	0	0	0	0	0	33.75172898033879	-33.75172898033879	4.558163951256176	79.01642956510999	85.44183630310529	0	0	33.75172898033879	-33.75172898033879	4.558163951256176	79.01642956510999	85.44183630302302	0	0
26.27999999999953	-2.654808340057637	7.01143655955603	-89.80032390294497	0	0.9399999999999999	0	11.66020074356372	-2.811811493490003	-12.07380882037208	25.00762544209126	0.4364654020699951	0	0	0	14.61452305535039	3.838855362935385	0.1386377540021052	12.81403285725006	0.2236470638177501	0	0	0	0	0	0	33.75593229808762	-33.75593229808762	4.558490082040307	79.0208628858672	85.44151017233747	0	0	33.75593229808762	-33.75593229808762	4.558490082040307	79.0208628858672	85.44151017225521	0	0
26.29999999999953	-2.666912355014497	6.928958572472077	-89.64390578267869	0	0.9399999999999999	0	11.2939729693827	-3.279255343725981	-12.44733896537128	28.272535637419	0.4934488347603954	0	0	0	14.89564291828452	3.514739794189102	-0.7837996517215051	13.03762887070588	0.2275495504468877	0	0	0	0	0	0	33.76063784282374	-33.76063784282374	4.558858802045651	79.02587570082338	85.44114145235049	0	0	33.76063784282374	-33.76063784282374	4.558858802045651	79.02587570082338	85.44114145226835	0	0
26.31999999999953	-2.754595949574841	6.817212805214364	-89.32811385933512	0	0.9399999999999999	0	11.08194262390619	-3.595893153289988	-12.57982594220214	31.79557056979687	0.5549373939931649	0	0	0	14.76591619084908	3.494382641960218	-0.4627888381355273	12.6726685022064	0.2211797903772799	0	0	0	0	0	0	33.76587568158644	-33.76587568158644	4.559267299866121	79.03142897089931	85.44073295455037	0	0	33.76587568158644	-33.76587568158644	4.559267299866121	79.03142897089931	85.44073295446825	0	0
26.33999999999953	-2.873024617689409	6.781265874314208	-88.96621884276921	0	0.9399999999999999	0	10.42987405772651	-3.641048420989626	-12.6796233133547	34.29429753150073	0.5985484065832516	0	0	0	14.96593663469149	3.294155873291218	-0.6856491241004112	12.1865173350936	0.2126948518487485	0	0	0	0	0	0	33.76822071057234	-33.76822071057234	4.559451103972556	79.03392781599278	85.44054915045307	0	0	33.76822071057234	-33.76822071057234	4.559451103972556	79.03392781599278	85.44054915037101	0	0
26.35999999999953	-2.970403272956202	6.842040261277541	-88.61458990150496	0	0.9399999999999999	0	9.568541361273848	-3.646540085407405	-12.54755207467916	36.0003690399616	0.6283249716803601	0	0	0	15.07175581105109	3.151756380949787	-0.7287831535934924	11.89450083978844	0.2075982025355389	0	0	0	0	0	0	33.77021054785025	-33.77021054785025	4.559607093621945	79.03604851825943	85.4403931608115	0	0	33.77021054785025	-33.77021054785025	4.559607093621945	79.03604851825943	85.44039316072946	0	0
26.37999999999953	-3.073977323853015	6.943992656941295	-88.24551602785289	0	0.9399999999999999	0	8.642078484635222	-3.77217231674646	-12.05184666308959	37.3003126429677	0.6510132676430546	0	0	0	15.24447890493031	3.044610403069281	-0.8296013550567767	12.04838837444526	0.2102840466930772	0	0	0	0	0	0	33.77286633083223	-33.77286633083223	4.559815574252725	79.03888288035003	85.44018468019109	0	0	33.77286633083223	-33.77286633083223	4.559815574252725	79.03888288035003	85.4401846801091	0	0
26.39999999999953	-3.153699104899891	6.958354193803713	-87.90391319604198	0	0.9399999999999999	0	7.574187520080942	-3.901914657162673	-10.95269240065357	38.15283458299486	0.6658925824420181	0	0	0	15.37108925342074	2.940222141305511	-0.9108183620101218	11.83070300643445	0.2064847202878731	0	0	0	0	0	0	33.77570803556112	-33.77570803556112	4.560038694524637	79.04191627064127	85.43996155993034	0	0	33.77570803556112	-33.77570803556112	4.560038694524637	79.04191627064127	85.43996155984836	0	0
26.41999999999953	-3.194314305398706	6.952908485902996	-87.61146836688745	0	0.9399999999999999	0	6.364294545031329	-3.953977078236395	-9.686253938719215	37.95562826570276	0.6624506828995383	0	0	0	15.38844241743364	2.958634133140524	-0.6001661043112594	11.55961363854122	0.2017533182509859	0	0	0	0	0	0	33.77834144082246	-33.77834144082246	4.560244889036022	79.04471944045441	85.43975536542919	0	0	33.77834144082246	-33.77834144082246	4.560244889036022	79.04471944045441	85.43975536534728	0	0
26.43999999999953	-3.245234063598043	6.966121347019032	-87.28086843553251	0	0.9399999999999999	0	4.969162590256291	-3.88303666020097	-8.495751459781719	37.66141123030526	0.6573156269163951	0	0	0	15.39754661684694	2.983484195438753	-0.2417702096248376	11.14486237717178	0.1945145431632897	0	0	0	0	0	0	33.77975576964989	-33.77975576964989	4.560355687057202	79.04622572788551	85.43964456741355	0	0	33.77975576964989	-33.77975576964989	4.560355687057202	79.04622572788551	85.43964456733163	0	0
26.45999999999952	-3.269445568954194	6.991598700723262	-87.09077734655042	0	0.9399999999999999	0	3.396179997042113	-3.781602625138447	-7.398393559814889	36.28390827359301	0.6332736648658096	0	0	0	15.39056938730736	2.995612345248991	-0.01854277895657952	10.60003529332446	0.1850055166961148	0	0	0	0	0	0	33.78268967088244	-33.78268967088244	4.560585812507557	79.04935429622186	85.43941444197463	0	0	33.78268967088244	-33.78268967088244	4.560585812507557	79.04935429622186	85.43941444189281	0	0
26.47999999999952	-3.313885295565766	7.078756803029448	-86.71716478779157	0	0.9399999999999999	0	1.803642756803379	-3.567729889756648	-6.77084916207617	34.39079791458592	0.600232655997524	0	0	0	16.1297587645364	2.827753741985242	-0.4148129604515028	10.96887309963924	0.1914429508221409	0	0	0	0	0	0	33.78508057154056	-33.78508057154056	4.560773303909229	79.05190323780003	85.43922695058234	0	0	33.78508057154056	-33.78508057154056	4.560773303909229	79.05190323780003	85.43922695050053	0	0
26.49999999999952	-3.5062577150676	7.180084406429395	-86.09454440894581	0	0.9399999999999999	0	0.108356360766901	-3.06136974866048	-6.76517403116021	31.87771383564627	0.5563710644405778	0	0	0	16.2022113047132	2.82070657344506	0.1743542511120374	10.51316669291434	0.1834893736023588	0	0	0	0	0	0	33.78753423966434	-33.78753423966434	4.560965355948377	79.05451411853713	85.43903489855273	0	0	33.78753423966434	-33.78753423966434	4.560965355948377	79.05451411853713	85.43903489847094	0	0
26.51999999999952	-3.605441059888597	7.212414566659175	-85.84548764088115	0	0.9399999999999999	0	-1.647621687245482	-2.547845030855051	-6.478456137737235	28.96027229999816	0.5054521039090789	0	0	0	16.98259251867604	2.713603189432226	-1.012204946007455	11.12751687492794	0.1942118070387226	0	0	0	0	0	0	33.78993110986176	-33.78993110986176	4.561153174764137	79.05706747516818	85.43884707974631	0	0	33.78993110986176	-33.78993110986176	4.561153174764137	79.05706747516818	85.43884707966454	0	0
26.53999999999952	-3.731626961448637	7.171534971844148	-85.64784621916026	0	0.9399999999999999	0	-3.397450528678941	-1.980802070879664	-6.126181802361798	25.81419213383024	0.4505426464777583	0	0	0	17.63215419159061	2.548111677808831	-2.381399466553756	11.82173415420612	0.2063281842863638	0	0	0	0	0	0	33.79274613067774	-33.79274613067774	4.561373779980372	79.06006655090813	85.4386264745411	0	0	33.79274613067774	-33.79274613067774	4.561373779980372	79.06006655090813	85.43862647445935	0	0
26.55999999999952	-3.950898526705994	7.194013492513593	-85.39249868498142	0	0.9399999999999999	0	-4.831994874506675	-1.141256987493732	-5.497820941917399	21.56980070298055	0.3764640412659981	0	0	0	18.56020503422272	2.429762618294432	-2.49877476210284	12.58025674969896	0.2195669010284871	0	0	0	0	0	0	33.79501264402359	-33.79501264402359	4.561550763536482	79.06247249494376	85.43844949099378	0	0	33.79501264402359	-33.79501264402359	4.561550763536482	79.06247249494376	85.43844949091211	0	0
26.57999999999952	-4.194498979974369	7.287399119933379	-85.14244059550029	0	0.9399999999999999	0	-6.040476533285659	-0.2654621680064579	-4.716055784904872	18.579245053811	0.3242689987238729	0	0	0	19.5113376128973	2.368226197595517	-1.362233923411355	12.9591925884504	0.226180579068506	0	0	0	0	0	0	33.80012940239062	-33.80012940239062	4.561948532045012	79.06787950835415	85.43805172250508	0	0	33.80012940239062	-33.80012940239062	4.561948532045012	79.06787950835415	85.43805172242344	0	0
